<svg width="200" height="31" viewBox="0 0 200 31" fill="none" xmlns="http://www.w3.org/2000/svg">
<path d="M200.002 8.56333V14.2847H195.638V30.4765H188.942V14.2847H184.578V8.56333H188.942V2.0567H195.638V8.56333H200.002Z" fill="black"/>
<path d="M161.566 30.4765V8.56338H168.262V10.807C169.579 9.04951 171.611 8.03986 174.432 8.03986C179.548 8.03986 183.047 11.7419 183.047 17.7998V30.4765H176.35V18.9216C176.35 15.5935 174.996 13.7612 172.476 13.7612C169.842 13.7612 168.262 15.8179 168.262 19.2208V30.4765H161.566Z" fill="black"/>
<path d="M144.404 31C139.288 31 135.789 27.298 135.789 21.2401V8.56335H142.485V20.1182C142.485 23.4463 143.839 25.2787 146.36 25.2787C148.993 25.2787 150.573 23.222 150.573 19.8191V8.56335H157.269V30.4765H150.573V28.2328C149.256 29.9904 147.225 31 144.404 31Z" fill="black"/>
<path d="M124.799 0H131.646V30.4764H124.799V18.0989H111.257V30.4764H104.41V0H111.257V12.0784H124.799V0Z" fill="black"/>
<path d="M90.5682 8.03986C96.0605 8.03986 100.387 10.807 100.65 15.1448H94.1795C93.9538 13.7986 92.4115 12.9759 90.4553 12.9759C88.4239 12.9759 86.9568 13.6864 86.9568 14.6587C86.9568 15.7431 88.4239 16.2666 92.1858 16.8649C98.6937 17.8372 101.026 19.9687 101.026 23.7455C101.026 28.2328 96.2862 31 90.681 31C84.9254 31 80.5616 28.158 80.3359 23.5585H86.8063C87.032 24.9795 88.6872 25.9144 90.7939 25.9144C92.9381 25.9144 94.5181 25.1291 94.5181 24.1195C94.5181 23.0724 93.0134 22.3993 89.2139 21.8384C83.9473 21.0531 80.4864 19.4452 80.4864 14.9952C80.4864 10.7323 84.963 8.03986 90.5682 8.03986Z" fill="black"/>
<path d="M78.4964 22.5863C77.3679 27.6719 73.0794 31 67.5118 31C60.7029 31 55.8125 26.1761 55.8125 19.5199C55.8125 12.8637 60.7029 8.03986 67.5118 8.03986C73.2675 8.03986 77.5936 11.7045 78.3836 16.3788H71.6123C71.0856 14.883 69.6185 13.836 67.5118 13.836C64.3895 13.836 62.3581 16.2292 62.3581 19.5199C62.3581 22.8106 64.3895 25.2039 67.5118 25.2039C69.5809 25.2039 71.1232 24.1568 71.7251 22.5863H78.4964Z" fill="black"/>
<path d="M42.0704 8.03986C48.8794 8.03986 53.7698 12.8637 53.7698 19.5199C53.7698 26.1761 48.8794 31 42.0704 31C35.2615 31 30.3711 26.1761 30.3711 19.5199C30.3711 12.8637 35.2615 8.03986 42.0704 8.03986ZM42.0704 13.7238C38.9105 13.7238 36.8415 16.1544 36.8415 19.5199C36.8415 22.8854 38.9105 25.3161 42.0704 25.3161C45.2304 25.3161 47.2994 22.8854 47.2994 19.5199C47.2994 16.1544 45.2304 13.7238 42.0704 13.7238Z" fill="black"/>
<path d="M0 30.4764V0H11.8874C22.0444 0 28.3267 6.24487 28.3267 15.2569C28.3267 24.269 22.0444 30.4764 11.8874 30.4764H0ZM6.84656 24.4559H12.0003C17.8688 24.4559 21.4801 21.1278 21.4801 15.2569C21.4801 9.386 17.8688 6.0205 12.0003 6.0205H6.84656V24.4559Z" fill="black"/>
</svg>
